<svg xmlns="http://www.w3.org/2000/svg" fill="none" version="1.1" width="32"
     height="32" viewBox="0 0 32 32">
    <defs>
        <clipPath id="master_svg0_65_333">
            <rect x="0" y="0" width="32" height="32" rx="0"/>
        </clipPath>
    </defs>
    <g style="mix-blend-mode:passthrough" clip-path="url(#master_svg0_65_333)">
        <g style="mix-blend-mode:passthrough">
            <path d="M2.6666259765625,7.999997938232422C2.6666259765625,7.263620938232422,3.2635789765625,6.666667938232422,3.9999559765625,6.666667938232422C3.9999559765625,6.666667938232422,27.9999259765625,6.666667938232422,27.9999259765625,6.666667938232422C28.7363259765625,6.666667938232422,29.3333259765625,7.263620938232422,29.3333259765625,7.999997938232422C29.3333259765625,8.736377938232422,28.7363259765625,9.333337938232422,27.9999259765625,9.333337938232422C27.9999259765625,9.333337938232422,3.9999559765625,9.333337938232422,3.9999559765625,9.333337938232422C3.2635789765625,9.333337938232422,2.6666259765625,8.736377938232422,2.6666259765625,7.999997938232422C2.6666259765625,7.999997938232422,2.6666259765625,7.999997938232422,2.6666259765625,7.999997938232422ZM2.6666259765625,15.999997938232422C2.6666259765625,15.263627938232421,3.2635789765625,14.666667938232422,3.9999559765625,14.666667938232422C3.9999559765625,14.666667938232422,27.9999259765625,14.666667938232422,27.9999259765625,14.666667938232422C28.7363259765625,14.666667938232422,29.3333259765625,15.263627938232421,29.3333259765625,15.999997938232422C29.3333259765625,16.73636793823242,28.7363259765625,17.33336793823242,27.9999259765625,17.33336793823242C27.9999259765625,17.33336793823242,3.9999559765625,17.33336793823242,3.9999559765625,17.33336793823242C3.2635789765625,17.33336793823242,2.6666259765625,16.73636793823242,2.6666259765625,15.999997938232422C2.6666259765625,15.999997938232422,2.6666259765625,15.999997938232422,2.6666259765625,15.999997938232422ZM2.6666259765625,23.999967938232423C2.6666259765625,23.263567938232423,3.2635789765625,22.666667938232422,3.9999559765625,22.666667938232422C3.9999559765625,22.666667938232422,27.9999259765625,22.666667938232422,27.9999259765625,22.666667938232422C28.7363259765625,22.666667938232422,29.3333259765625,23.263567938232423,29.3333259765625,23.999967938232423C29.3333259765625,24.736367938232423,28.7363259765625,25.33336793823242,27.9999259765625,25.33336793823242C27.9999259765625,25.33336793823242,3.9999559765625,25.33336793823242,3.9999559765625,25.33336793823242C3.2635789765625,25.33336793823242,2.6666259765625,24.736367938232423,2.6666259765625,23.999967938232423C2.6666259765625,23.999967938232423,2.6666259765625,23.999967938232423,2.6666259765625,23.999967938232423Z"
                  fill-rule="evenodd" fill="#FFFFFF" fill-opacity="1"/>
        </g>
    </g>
</svg>