<svg xmlns="http://www.w3.org/2000/svg" xmlns:xlink="http://www.w3.org/1999/xlink" fill="none" version="1.1" width="32"
     height="32" viewBox="0 0 32 32">
    <defs>
        <clipPath id="master_svg0_78_197">
            <rect x="0" y="0" width="32" height="32" rx="0"/>
        </clipPath>
    </defs>
    <g clip-path="url(#master_svg0_78_197)">
        <g>
            <path d="M8.312685625,8.60401701171875C4.808815624999999,12.24071701171875,4.335365625,17.83618701171875,7.178365625,22.00988701171875C10.021365625,26.18358701171875,15.401615625,27.79178701171875,20.068715625,25.86268701171875C20.222015625,24.86268701171875,19.886015625,23.90268701171875,19.748715625,23.56668701171875C19.442015625,22.81998701171875,18.431315625,21.54398701171875,16.744715624999998,19.77468701171875C16.294015625,19.30138701171875,16.323315625,18.93738701171875,16.484715625,17.85868701171875L16.502015625,17.737387011718752C16.611315625,16.99868701171875,16.795315625,16.56138701171875,19.282015625,16.16668701171875C20.546015625,15.96668701171875,20.878015625,16.470687011718752,21.338015625,17.170687011718748L21.492715625,17.39998701171875C21.930015625,18.03998701171875,22.254015625,18.18668701171875,22.743315625,18.407987011718753C22.963315625,18.50798701171875,23.236715625,18.63468701171875,23.603315625,18.84138701171875C24.472715625,19.33868701171875,24.472715625,19.89998701171875,24.472715625,21.12938701171875L24.472715625,21.26938701171875C24.472715625,21.79068701171875,24.422015625,22.24938701171875,24.342015625,22.64798701171875C28.730015625,17.14078701171875,26.673815625,8.96820701171875,20.202015625,6.19334701171875C19.464715625,6.69068701171875,18.452715625,7.39601701171875,18.099315625,7.88001701171875C17.919315625,8.12668701171875,17.663315625,9.389347011718751,16.832715625,9.49334701171875C16.616715624999998,9.52001701171875,16.324715625,9.50134701171875,16.015315625,9.48134701171875C15.186015625,9.428017011718751,14.052715625,9.354687011718749,13.690015625,10.34001701171875C13.459315625,10.96401701171875,13.419315625,12.66001701171875,14.164715625,13.53998701171875C14.284715625,13.67998701171875,14.307315625,13.93998701171875,14.226015625,14.23198701171875C14.119315625,14.61468701171875,13.904715625,14.84798701171875,13.836715625,14.89598701171875C13.708715625,14.82138701171875,13.452715625,14.52398701171875,13.278015625,14.32268701171875C12.860715625,13.83598701171875,12.338015625,13.22938701171875,11.663355625,13.04268701171875C11.418015625,12.97468701171875,11.148685625,12.91868701171875,10.886015625,12.86268701171875C10.154015625,12.70938701171875,9.326015625,12.53468701171875,9.132685625,12.12401701171875C8.991345625000001,11.82268701171875,8.992685625,11.40801701171875,8.992685625,10.97068701171875C8.992685625,10.414687011718751,8.992685625,9.786687011718751,8.720685625,9.17734701171875C8.626125625,8.95989701171875,8.487155625,8.76460701171875,8.312685625,8.60401701171875ZM15.999315625,29.33338701171875C8.635345625,29.33338701171875,2.666015625,23.36398701171875,2.666015625,15.99998701171875C2.666015625,8.63601701171875,8.635345625,2.66668701171875,15.999315625,2.66668701171875C23.363315625,2.66668701171875,29.332715625,8.63601701171875,29.332715625,15.99998701171875C29.332715625,23.36398701171875,23.363315625,29.33338701171875,15.999315625,29.33338701171875Z"
                  fill="#FFFFFF" fill-opacity="1"/>
        </g>
    </g>
</svg>